<svg xmlns="http://www.w3.org/2000/svg" width="96" height="96" viewBox="0 0 96 96" fill="none"><rect width="96" height="96" rx="48" fill="white"></rect><path d="M59.7569 46.5893C59.5193 46.5893 59.2914 46.4949 59.1234 46.3269C58.9553 46.1588 58.8609 45.9309 58.8609 45.6933V40.884C58.8609 34.8959 53.9889 30.0239 48.0003 30.0239C42.0117 30.0239 37.1397 34.8959 37.1397 40.884V45.6933C37.1397 45.9309 37.0453 46.1588 36.8772 46.3269C36.7092 46.4949 36.4813 46.5893 36.2437 46.5893C36.006 46.5893 35.7781 46.4949 35.6101 46.3269C35.4421 46.1588 35.3477 45.9309 35.3477 45.6933V40.884C35.3477 33.9075 41.0238 28.2319 48.0003 28.2319C54.9768 28.2319 60.6529 33.9075 60.6529 40.884V45.6933C60.6529 45.9309 60.5585 46.1588 60.3905 46.3269C60.2225 46.4949 59.9946 46.5893 59.7569 46.5893Z" fill="black"></path><path d="M63.2845 46.5895C63.0468 46.5895 62.8189 46.4951 62.6509 46.327C62.4829 46.159 62.3885 45.9311 62.3885 45.6935V40.8842C62.3885 37.0682 60.8726 33.4086 58.1743 30.7103C55.476 28.012 51.8163 26.4961 48.0004 26.4961C44.1844 26.4961 40.5248 28.012 37.8265 30.7103C35.1282 33.4086 33.6123 37.0682 33.6123 40.8842V45.6935C33.6123 45.9311 33.5179 46.159 33.3499 46.327C33.1818 46.4951 32.9539 46.5895 32.7163 46.5895C32.4787 46.5895 32.2508 46.4951 32.0827 46.327C31.9147 46.159 31.8203 45.9311 31.8203 45.6935V40.8842C31.8203 36.593 33.525 32.4775 36.5593 29.4431C39.5937 26.4088 43.7092 24.7041 48.0004 24.7041C52.2916 24.7041 56.4071 26.4088 59.4414 29.4431C62.4758 32.4775 64.1805 36.593 64.1805 40.8842V45.6935C64.1805 45.9311 64.0861 46.159 63.918 46.327C63.75 46.4951 63.5221 46.5895 63.2845 46.5895Z" fill="black"></path><path d="M37.074 63.2975H32.3845C31.7068 63.2968 31.0571 63.0273 30.5779 62.5481C30.0987 62.069 29.829 61.4194 29.8281 60.7417V47.3538C29.8289 46.676 30.0984 46.0262 30.5777 45.5469C31.057 45.0677 31.7068 44.7981 32.3845 44.7974H37.074C37.3116 44.7974 37.5395 44.8918 37.7075 45.0598C37.8756 45.2278 37.97 45.4557 37.97 45.6934V62.4015C37.97 62.6392 37.8756 62.8671 37.7075 63.0351C37.5395 63.2031 37.3116 63.2975 37.074 63.2975ZM32.3845 46.5894C32.1818 46.5895 31.9875 46.6701 31.8442 46.8134C31.7009 46.9567 31.6203 47.1511 31.6201 47.3538V60.7417C31.6204 60.9443 31.7011 61.1385 31.8444 61.2817C31.9877 61.4249 32.1819 61.5054 32.3845 61.5055H36.178V46.5894H32.3845Z" fill="black"></path><path d="M30.7228 61.455H28.1149C27.2746 61.4541 26.4689 61.1199 25.8746 60.5257C25.2804 59.9314 24.9462 59.1258 24.9453 58.2854V49.8092C24.9462 48.9689 25.2804 48.1632 25.8746 47.569C26.4689 46.9748 27.2746 46.6405 28.1149 46.6396H30.7228C30.9605 46.6396 31.1884 46.734 31.3564 46.9021C31.5244 47.0701 31.6188 47.298 31.6188 47.5356V60.559C31.6188 60.7966 31.5244 61.0245 31.3564 61.1926C31.1884 61.3606 30.9605 61.455 30.7228 61.455ZM28.1149 48.4316C27.7497 48.4321 27.3995 48.5774 27.1413 48.8356C26.883 49.0939 26.7378 49.444 26.7373 49.8092V58.2854C26.7378 58.6506 26.883 59.0008 27.1413 59.259C27.3995 59.5173 27.7497 59.6626 28.1149 59.663H29.8268V48.4316H28.1149Z" fill="black"></path><path d="M63.6167 63.2975H58.9273C58.6896 63.2975 58.4617 63.2031 58.2937 63.0351C58.1256 62.8671 58.0312 62.6392 58.0312 62.4015V45.6934C58.0312 45.4557 58.1256 45.2278 58.2937 45.0598C58.4617 44.8918 58.6896 44.7974 58.9273 44.7974H63.6167C64.2945 44.7981 64.9443 45.0677 65.4235 45.5469C65.9028 46.0262 66.1723 46.676 66.1731 47.3538V60.7417C66.1722 61.4194 65.9026 62.069 65.4233 62.5481C64.9441 63.0273 64.2944 63.2968 63.6167 63.2975ZM59.8233 61.5055H63.6167C63.8193 61.5054 64.0135 61.4249 64.1568 61.2817C64.3001 61.1385 64.3808 60.9443 64.3811 60.7417V47.3538C64.3809 47.1511 64.3004 46.9567 64.157 46.8134C64.0137 46.6701 63.8194 46.5895 63.6167 46.5894H59.8233V61.5055Z" fill="black"></path><path d="M67.8867 61.455H65.2788C65.0412 61.455 64.8133 61.3606 64.6452 61.1926C64.4772 61.0245 64.3828 60.7966 64.3828 60.559V47.5356C64.3828 47.298 64.4772 47.0701 64.6452 46.9021C64.8133 46.734 65.0412 46.6396 65.2788 46.6396H67.8867C68.7271 46.6405 69.5328 46.9748 70.127 47.569C70.7212 48.1632 71.0554 48.9689 71.0563 49.8092V58.2854C71.0554 59.1258 70.7212 59.9314 70.127 60.5257C69.5328 61.1199 68.7271 61.4541 67.8867 61.455ZM66.1748 59.663H67.8867C68.252 59.6626 68.6021 59.5173 68.8604 59.259C69.1186 59.0008 69.2639 58.6506 69.2643 58.2854V49.8092C69.2639 49.444 69.1186 49.0939 68.8604 48.8356C68.6021 48.5774 68.252 48.4321 67.8867 48.4316H66.1748V59.663Z" fill="black"></path><path d="M56.2577 69.3286H52.2554C52.0177 69.3286 51.7898 69.2342 51.6218 69.0661C51.4538 68.8981 51.3594 68.6702 51.3594 68.4326C51.3594 68.1949 51.4538 67.967 51.6218 67.799C51.7898 67.631 52.0177 67.5366 52.2554 67.5366H56.2577C57.6191 67.5349 58.9243 66.9934 59.887 66.0307C60.8497 65.068 61.3913 63.7628 61.3929 62.4014C61.3929 62.1637 61.4873 61.9358 61.6553 61.7678C61.8234 61.5998 62.0513 61.5054 62.2889 61.5054C62.5265 61.5054 62.7544 61.5998 62.9225 61.7678C63.0905 61.9358 63.1849 62.1637 63.1849 62.4014C63.1828 64.2379 62.4523 65.9987 61.1537 67.2974C59.855 68.596 58.0943 69.3265 56.2577 69.3286Z" fill="black"></path><path d="M50.6934 71.2959H46.844C46.1926 71.295 45.5681 71.0358 45.1074 70.5752C44.6468 70.1146 44.3876 69.4901 44.3867 68.8386V68.0272C44.3875 67.3756 44.6466 66.751 45.1072 66.2902C45.5679 65.8295 46.1925 65.5702 46.844 65.5693H50.6934C51.3451 65.5699 51.9699 65.8291 52.4307 66.2899C52.8915 66.7507 53.1507 67.3755 53.1513 68.0272V68.8386C53.1505 69.4902 52.8913 70.1149 52.4305 70.5756C51.9698 71.0362 51.345 71.2953 50.6934 71.2959ZM46.844 67.3613C46.6675 67.3616 46.4984 67.4319 46.3737 67.5567C46.249 67.6815 46.1789 67.8507 46.1787 68.0272V68.8386C46.1789 69.015 46.249 69.1841 46.3737 69.3089C46.4985 69.4336 46.6676 69.5037 46.844 69.5039H50.6934C50.8699 69.5039 51.0392 69.4338 51.1641 69.3091C51.2889 69.1843 51.3591 69.0151 51.3593 68.8386V68.0272C51.3591 67.8507 51.289 67.6815 51.1643 67.5567C51.0396 67.4319 50.8704 67.3616 50.694 67.3613H46.844Z" fill="black"></path></svg>