<svg xmlns="http://www.w3.org/2000/svg" width="96" height="96" viewBox="0 0 96 96" fill="none"><rect width="96" height="96" rx="48" fill="white"></rect><path d="M51.6445 58.5C51.6445 59.8845 52.0551 61.2378 52.8242 62.389C53.5934 63.5401 54.6867 64.4373 55.9657 64.9672C57.2448 65.497 58.6523 65.6356 60.0102 65.3655C61.368 65.0954 62.6153 64.4287 63.5943 63.4497C64.5732 62.4708 65.2399 61.2235 65.51 59.8656C65.7801 58.5078 65.6415 57.1003 65.1117 55.8212C64.5819 54.5421 63.6847 53.4489 62.5335 52.6797C61.3824 51.9105 60.029 51.5 58.6445 51.5C56.788 51.5 55.0075 52.2375 53.6948 53.5503C52.382 54.863 51.6445 56.6435 51.6445 58.5ZM58.6445 53.25C59.6829 53.25 60.6979 53.5579 61.5613 54.1348C62.4246 54.7117 63.0975 55.5316 63.4949 56.4909C63.8923 57.4502 63.9962 58.5058 63.7937 59.5242C63.5911 60.5426 63.0911 61.4781 62.3568 62.2123C61.6226 62.9465 60.6872 63.4466 59.6688 63.6491C58.6504 63.8517 57.5948 63.7477 56.6354 63.3504C55.6761 62.953 54.8562 62.2801 54.2793 61.4167C53.7024 60.5534 53.3945 59.5384 53.3945 58.5C53.3945 57.1076 53.9477 55.7723 54.9322 54.7877C55.9168 53.8031 57.2521 53.25 58.6445 53.25Z" fill="black"></path><path d="M57.1863 60.7704C57.2675 60.8518 57.364 60.9163 57.4703 60.9604C57.5765 61.0044 57.6903 61.0271 57.8053 61.0271C57.9203 61.0271 58.0342 61.0044 58.1404 60.9604C58.2466 60.9163 58.3431 60.8518 58.4244 60.7704L61.7231 57.4673C61.8111 57.3879 61.882 57.2914 61.9316 57.1837C61.9812 57.076 62.0083 56.9594 62.0114 56.8409C62.0146 56.7225 61.9936 56.6046 61.9498 56.4944C61.906 56.3843 61.8402 56.2842 61.7566 56.2003C61.6729 56.1163 61.573 56.0502 61.4631 56.006C61.3531 55.9618 61.2353 55.9404 61.1168 55.9431C60.9983 55.9458 60.8816 55.9726 60.7737 56.0217C60.6659 56.0709 60.5691 56.1415 60.4894 56.2292L57.8075 58.9111L56.495 57.5986C56.4153 57.5109 56.3185 57.4403 56.2107 57.3911C56.1028 57.3419 55.9861 57.3152 55.8676 57.3125C55.7491 57.3098 55.6313 57.3312 55.5213 57.3754C55.4114 57.4196 55.3115 57.4857 55.2278 57.5696C55.1442 57.6536 55.0784 57.7537 55.0346 57.8638C54.9908 57.9739 54.9698 58.0918 54.973 58.2103C54.9761 58.3288 55.0033 58.4454 55.0528 58.5531C55.1024 58.6608 55.1733 58.7572 55.2613 58.8367L57.1863 60.7704Z" fill="black"></path><path d="M58.5 46.25C57.1875 46.25 55.875 45.5106 55.875 44.1456C55.875 43.9136 55.7828 43.691 55.6187 43.5269C55.4546 43.3628 55.2321 43.2706 55 43.2706C54.7679 43.2706 54.5454 43.3628 54.3813 43.5269C54.2172 43.691 54.125 43.9136 54.125 44.1456C54.125 46.3025 55.7612 47.5844 57.625 47.9169V48.875C57.625 49.1071 57.7172 49.3296 57.8813 49.4937C58.0454 49.6578 58.2679 49.75 58.5 49.75C58.7321 49.75 58.9546 49.6578 59.1187 49.4937C59.2828 49.3296 59.375 49.1071 59.375 48.875V47.9519C61.4094 47.6631 62.875 46.2719 62.875 44.2419C62.875 41.9581 60.7313 41.1225 59.0075 40.4531C57.2838 39.7838 56.3125 39.3375 56.3125 38.3969C56.3125 36.8962 57.7912 36.4981 58.6662 36.4981C59.5412 36.4981 60.9194 36.87 60.9194 38.2481C60.9194 38.4802 61.0116 38.7027 61.1757 38.8668C61.3397 39.0309 61.5623 39.1231 61.7944 39.1231C62.0264 39.1231 62.249 39.0309 62.4131 38.8668C62.5772 38.7027 62.6694 38.4802 62.6694 38.2481C62.6694 36.2094 61.0988 35.0281 59.3619 34.7787V34C59.3619 33.7679 59.2697 33.5454 59.1056 33.3813C58.9415 33.2172 58.7189 33.125 58.4869 33.125C58.2548 33.125 58.0323 33.2172 57.8682 33.3813C57.7041 33.5454 57.6119 33.7679 57.6119 34V34.875C55.9713 35.2338 54.5494 36.4325 54.5494 38.41C54.5494 40.5975 56.6538 41.4375 58.3469 42.0981C60.04 42.7587 61.125 43.2312 61.125 44.2419C61.125 45.6462 59.9175 46.25 58.5 46.25Z" fill="black"></path><path d="M68.125 25.25H48.875C48.1788 25.25 47.5111 25.5266 47.0188 26.0188C46.5266 26.5111 46.25 27.1788 46.25 27.875V46.6875C46.25 46.9196 46.3422 47.1421 46.5063 47.3062C46.6704 47.4703 46.8929 47.5625 47.125 47.5625C47.3571 47.5625 47.5796 47.4703 47.7437 47.3062C47.9078 47.1421 48 46.9196 48 46.6875V27.875C48 27.6429 48.0922 27.4204 48.2563 27.2563C48.4204 27.0922 48.6429 27 48.875 27H52.8125V27.875C52.8125 28.5712 53.0891 29.2389 53.5813 29.7312C54.0736 30.2234 54.7413 30.5 55.4375 30.5H61.5625C62.2587 30.5 62.9264 30.2234 63.4187 29.7312C63.9109 29.2389 64.1875 28.5712 64.1875 27.875V27H68.125C68.3571 27 68.5796 27.0922 68.7437 27.2563C68.9078 27.4204 69 27.6429 69 27.875V68.125C69 68.3571 68.9078 68.5796 68.7437 68.7437C68.5796 68.9078 68.3571 69 68.125 69H48.875C48.6429 69 48.4204 68.9078 48.2563 68.7437C48.0922 68.5796 48 68.3571 48 68.125V65.0625C48 64.8304 47.9078 64.6079 47.7437 64.4438C47.5796 64.2797 47.3571 64.1875 47.125 64.1875C46.8929 64.1875 46.6704 64.2797 46.5063 64.4438C46.3422 64.6079 46.25 64.8304 46.25 65.0625V68.125C46.25 68.8212 46.5266 69.4889 47.0188 69.9812C47.5111 70.4734 48.1788 70.75 48.875 70.75H68.125C68.8212 70.75 69.4889 70.4734 69.9812 69.9812C70.4734 69.4889 70.75 68.8212 70.75 68.125V27.875C70.75 27.1788 70.4734 26.5111 69.9812 26.0188C69.4889 25.5266 68.8212 25.25 68.125 25.25ZM62.4375 27.875C62.4375 28.1071 62.3453 28.3296 62.1812 28.4937C62.0171 28.6578 61.7946 28.75 61.5625 28.75H55.4375C55.2054 28.75 54.9829 28.6578 54.8188 28.4937C54.6547 28.3296 54.5625 28.1071 54.5625 27.875V27H62.4375V27.875Z" fill="black"></path><path d="M47.8849 59.038C48.4153 57.9433 48.8656 56.8116 49.2324 55.6518C49.4057 55.189 49.4713 54.6928 49.4243 54.2008C49.3773 53.7088 49.2189 53.234 48.9611 52.8124C48.3773 51.8628 47.482 51.1453 46.428 50.7824C46.428 49.0849 44.9011 47.943 43.3655 47.2387C43.2108 46.6146 42.9139 46.0348 42.498 45.5445C42.0821 45.0542 41.5585 44.6668 40.968 44.4124C42.0836 41.7393 43.4049 38.4187 43.7986 37.0143C44.4549 34.6737 45.1899 32.3155 42.6874 31.3837C40.3511 30.5087 38.9336 33.2955 38.2467 34.6255C34.9174 41.1224 32.9967 44.163 32.9967 44.2068C32.218 45.4668 32.0386 45.7074 31.7805 45.7643C31.2474 44.996 30.7916 44.1768 30.4199 43.3187C29.0286 40.4618 27.3574 39.3812 25.4499 40.0899C23.1617 40.9518 22.6236 43.2574 23.7042 45.5587C25.218 48.8093 25.043 53.0837 24.6711 56.6187C24.4436 58.8587 24.9992 60.6174 26.3336 61.8687C26.2515 62.2856 26.1314 62.6942 25.9749 63.0893C25.9204 63.2297 25.9032 63.3817 25.9247 63.5307C25.9463 63.6797 26.0059 63.8206 26.0978 63.9398C26.1898 64.059 26.3109 64.1525 26.4496 64.2112C26.5882 64.2699 26.7396 64.2919 26.8892 64.2749C28.8222 64.1362 30.7623 64.4168 32.5767 65.0974C34.7865 66.0131 36.8092 67.327 38.5442 68.9737C38.6333 69.0609 38.7399 69.128 38.857 69.1707C38.9742 69.2133 39.099 69.2304 39.2233 69.2209C39.3476 69.2114 39.4684 69.1754 39.5776 69.1154C39.6868 69.0554 39.782 68.9728 39.8567 68.873C41.4317 66.6855 40.688 67.438 41.7905 66.4843C44.4899 64.148 46.3011 62.2712 47.863 59.0468L47.8849 59.038ZM47.4474 53.7093C47.5766 53.9158 47.6544 54.1504 47.6742 54.3932C47.694 54.6361 47.6552 54.8802 47.5611 55.1049C47.221 56.1769 46.8058 57.2237 46.3186 58.2374C46.1656 58.4571 45.9402 58.6159 45.6819 58.6863C45.4236 58.7567 45.1488 58.7341 44.9055 58.6224C44.663 58.49 44.4553 58.302 44.2994 58.0739C44.1435 57.8457 44.0439 57.5839 44.0086 57.3099C44.3577 56.9274 44.6309 56.482 44.8136 55.9974C45.3211 54.6324 45.763 53.7049 46.1042 52.5849C46.6549 52.816 47.123 53.2078 47.4474 53.7093ZM44.6124 50.4105C44.8311 50.848 44.5117 51.8412 44.293 52.5105C44.1355 52.9962 43.6236 54.1555 43.1861 55.3587C42.9411 56.0193 42.4336 56.623 41.7336 56.5399C41.4474 56.4898 41.1794 56.3651 40.9566 56.1785C40.7339 55.9919 40.5643 55.7498 40.4649 55.4768C40.8151 55.1596 41.085 54.7637 41.2524 54.3218C43.2736 49.2337 43.1861 49.4087 43.2736 49.1812C43.8305 49.4512 44.296 49.8786 44.6124 50.4105ZM41.4711 47.1774C42.1361 48.4374 41.2174 49.2862 39.6205 53.6874C39.358 54.3437 38.9292 54.488 38.3955 54.2299C38.098 54.0434 37.8681 53.7664 37.7398 53.4396C37.6114 53.1128 37.5913 52.7534 37.6824 52.4143C38.1199 50.9268 39.9136 46.893 40.268 46.0574C40.782 46.2872 41.2052 46.6811 41.4711 47.1774ZM40.6617 65.1412C39.4542 66.1868 39.813 65.8937 39.0255 67.0268C37.2986 65.5205 35.3338 64.3112 33.2111 63.448C31.5452 62.8181 29.7814 62.4863 28.0005 62.468C28.2892 61.1993 27.8999 60.8799 27.6899 60.718C26.6486 59.843 26.233 58.583 26.4124 56.8068C26.8105 53.0005 26.9986 48.4374 25.2924 44.8237C24.7017 43.5549 24.7017 42.2424 26.0274 41.7612C26.4036 41.6168 27.4142 41.2405 28.8142 44.1149C29.5055 45.5455 29.5492 45.4274 31.3036 49.4918C31.4021 49.6941 31.5748 49.8507 31.7857 49.929C31.9966 50.0073 32.2296 50.0014 32.4363 49.9124C32.643 49.8234 32.8074 49.6583 32.8955 49.4512C32.9836 49.2442 32.9885 49.0111 32.9092 48.8005C32.8874 48.7437 32.638 48.1705 32.3186 47.4443C33.1936 47.1774 33.6311 46.4555 34.4492 45.1562C34.4755 45.1124 36.4486 41.9668 39.7867 35.4568C40.7799 33.523 41.4361 32.8318 42.0617 33.0549C43.1117 33.4487 42.6611 34.5555 42.0967 36.5549C41.5849 38.3749 39.3011 43.8962 38.2467 46.3068C37.6386 47.7068 36.3874 50.6818 36.0111 51.8805C35.791 52.6197 35.8322 53.4122 36.1278 54.1245C36.4234 54.8369 36.9554 55.4257 37.6342 55.7918C38.0024 55.9677 38.4033 56.0646 38.8111 56.0762C39.0224 56.6541 39.3876 57.1633 39.8671 57.5488C40.3467 57.9343 40.9225 58.1815 41.5324 58.2637C41.8364 58.3012 42.1447 58.2834 42.4424 58.2112C42.5863 58.643 42.8153 59.0417 43.1159 59.3836C43.4165 59.7255 43.7825 60.0037 44.1924 60.2018C44.4701 60.3252 44.7652 60.4049 45.0674 60.438C43.8249 62.2032 42.342 63.7862 40.6617 65.1412Z" fill="black"></path><path d="M32.6875 32.3549V27.3018C32.6875 27.0697 32.5953 26.8471 32.4312 26.683C32.2671 26.5189 32.0446 26.4268 31.8125 26.4268C31.5804 26.4268 31.3579 26.5189 31.1938 26.683C31.0297 26.8471 30.9375 27.0697 30.9375 27.3018V32.3549C30.9375 32.5869 31.0297 32.8095 31.1938 32.9736C31.3579 33.1377 31.5804 33.2299 31.8125 33.2299C32.0446 33.2299 32.2671 33.1377 32.4312 32.9736C32.5953 32.8095 32.6875 32.5869 32.6875 32.3549Z" fill="black"></path><path d="M35.525 34.1442L38.8107 30.4604C38.8871 30.3742 38.9458 30.2738 38.9834 30.165C39.021 30.0561 39.0368 29.9409 39.0299 29.8259C39.023 29.711 38.9935 29.5985 38.9431 29.4949C38.8927 29.3913 38.8225 29.2987 38.7363 29.2223C38.6501 29.1459 38.5497 29.0872 38.4409 29.0496C38.332 29.0119 38.2168 28.9961 38.1018 29.003C37.9868 29.0099 37.8744 29.0394 37.7708 29.0898C37.6672 29.1402 37.5746 29.2105 37.4982 29.2967L34.2169 32.9804C34.0626 33.1545 33.9837 33.3827 33.9977 33.6149C34.0116 33.8471 34.1172 34.0642 34.2913 34.2185C34.4653 34.3729 34.6936 34.4517 34.9258 34.4378C35.1579 34.4238 35.3751 34.3182 35.5294 34.1442H35.525Z" fill="black"></path><path d="M29.33 34.2142C29.5026 34.0597 29.6069 33.843 29.6201 33.6118C29.6332 33.3805 29.5541 33.1534 29.4 32.9804L26.1232 29.2967C25.9688 29.1226 25.7517 29.017 25.5195 29.003C25.2873 28.9891 25.0591 29.068 24.885 29.2223C24.711 29.3766 24.6054 29.5937 24.5914 29.8259C24.5775 30.0581 24.6563 30.2864 24.8107 30.4604L28.0919 34.1442C28.1685 34.2303 28.2613 34.3004 28.365 34.3506C28.4688 34.4007 28.5814 34.4299 28.6964 34.4364C28.8115 34.4429 28.9267 34.4266 29.0354 34.3885C29.1441 34.3503 29.2443 34.2911 29.33 34.2142Z" fill="black"></path></svg>